<?xml version="1.0" encoding="UTF-8"?>
<svg xmlns="http://www.w3.org/2000/svg" viewBox="0 0 100 110" fill="none" role="img" aria-label="Nexus Shield emblem">
  <defs>
    <linearGradient id="emblemMetal" x1="50" y1="6" x2="50" y2="100" gradientUnits="userSpaceOnUse">
      <stop stop-color="#E3EDF6"/>
      <stop offset="0.35" stop-color="#7FA3BC"/>
      <stop offset="0.75" stop-color="#3D5568"/>
      <stop offset="1" stop-color="#1A2834"/>
    </linearGradient>
    <linearGradient id="emblemBevel" x1="18" y1="12" x2="82" y2="98" gradientUnits="userSpaceOnUse">
      <stop stop-color="#B8CEDE"/>
      <stop offset="1" stop-color="#243746"/>
    </linearGradient>
    <linearGradient id="emblemInner" x1="50" y1="22" x2="50" y2="82" gradientUnits="userSpaceOnUse">
      <stop stop-color="#4A9BB5" stop-opacity="0.45"/>
      <stop offset="1" stop-color="#101820"/>
    </linearGradient>
  </defs>
  <g>
    <path d="M50 5 L86 19.5 V52.5 C86 79 50 102 50 102 C50 102 14 79 14 52.5 V19.5 Z"
          fill="url(#emblemMetal)" stroke="url(#emblemBevel)" stroke-width="1.6" stroke-linejoin="round"/>
    <path d="M50 15 L76 26.5 V50.5 C76 69 50 88 50 88 C50 88 24 69 24 50.5 V26.5 Z"
          fill="url(#emblemInner)" stroke="#8EB3C9" stroke-width="0.9"/>
    <path d="M35 36 V72 M35 36 L63 72 M63 36 V72"
          stroke="#D9E8F2" stroke-width="5" stroke-linecap="round" stroke-linejoin="round"/>
    <path d="M43 53 H57" stroke="#00F0FF" stroke-width="1.4" stroke-linecap="round"/>
    <circle cx="43" cy="53" r="2.2" fill="#00FF9D"/>
    <circle cx="57" cy="53" r="2.2" fill="#00FF9D"/>
  </g>
</svg>

